<svg width="188" height="33" viewBox="0 0 188 33" fill="none" xmlns="http://www.w3.org/2000/svg">
<path d="M4.635 7.25C7.29 7.25 8.82 5.915 8.82 3.68C8.82 1.475 7.335 0.169999 4.62 0.169999H1.05V11H2.64V7.25H4.635ZM2.64 5.855V1.565H4.71C6.63 1.565 7.155 2.525 7.155 3.605C7.155 4.745 6.525 5.855 4.71 5.855H2.64ZM11.7601 10.205C11.0851 10.205 10.7101 9.755 10.7101 9.185C10.7101 8.51 11.2201 7.775 13.8301 7.775C13.8001 8.54 13.7701 8.81 13.5301 9.185C13.0801 9.89 12.3751 10.205 11.7601 10.205ZM16.1251 9.755C15.9451 9.95 15.7801 10.085 15.6151 10.085C15.3751 10.085 15.2551 9.935 15.2551 9.665C15.2551 8.6 15.3301 7.04 15.3301 6.125C15.3301 4.655 14.3551 3.92 12.4651 3.92C11.2651 3.92 9.55512 4.355 9.55512 6.035L10.7701 6.245C10.8451 5.315 11.4451 4.97 12.3301 4.97C13.3651 4.97 13.8451 5.195 13.8601 6.11C13.8601 6.275 13.8451 6.575 13.8301 6.86C10.3051 6.86 9.27012 8.045 9.27012 9.305C9.27012 10.445 10.0501 11.21 11.4001 11.21C12.6751 11.21 13.5151 10.835 14.1151 9.92C14.1751 10.835 14.7001 11.21 15.3751 11.21C15.9451 11.21 16.2151 10.955 16.6351 10.415L16.1251 9.755ZM20.3428 11.21C21.8278 11.21 23.1478 10.505 23.1478 9.095C23.1478 8.27 22.5628 7.595 21.6178 7.505C22.4578 7.22 22.9228 6.68 22.9228 5.825C22.9228 4.835 21.9778 3.92 20.3128 3.92C18.6928 3.92 17.5378 4.67 17.3878 6.11L18.8278 6.26C18.9628 5.315 19.4128 5.045 20.3128 5.045C21.1978 5.045 21.4828 5.51 21.4828 5.93C21.4828 6.275 21.3028 6.89 20.5078 6.89H19.5028V8.09H20.5378C21.1528 8.09 21.6778 8.39 21.6778 9.02C21.6778 9.665 21.2278 10.085 20.3428 10.085C19.4428 10.085 18.7528 9.665 18.6778 8.72L17.2378 8.87C17.3128 10.31 18.5728 11.21 20.3428 11.21ZM26.0269 13.82V9.95C26.4019 10.76 27.2269 11.21 28.3519 11.21C30.3169 11.21 31.3519 9.53 31.3519 7.565C31.3519 5.615 30.3169 3.92 28.2019 3.92C27.2419 3.92 26.5069 4.43 26.0269 5.03V4.13H24.5719V13.82H26.0269ZM26.0269 7.505C26.0269 5.945 26.8369 5.12 27.9469 5.12C28.9969 5.12 29.8669 5.675 29.8669 7.505C29.8669 9.35 28.9519 10.01 27.9019 10.01C26.8069 10.01 26.0269 9.125 26.0269 7.505ZM34.9632 10.205C34.2882 10.205 33.9132 9.755 33.9132 9.185C33.9132 8.51 34.4232 7.775 37.0332 7.775C37.0032 8.54 36.9732 8.81 36.7332 9.185C36.2832 9.89 35.5782 10.205 34.9632 10.205ZM39.3282 9.755C39.1482 9.95 38.9832 10.085 38.8182 10.085C38.5782 10.085 38.4582 9.935 38.4582 9.665C38.4582 8.6 38.5332 7.04 38.5332 6.125C38.5332 4.655 37.5582 3.92 35.6682 3.92C34.4682 3.92 32.7582 4.355 32.7582 6.035L33.9732 6.245C34.0482 5.315 34.6482 4.97 35.5332 4.97C36.5682 4.97 37.0482 5.195 37.0632 6.11C37.0632 6.275 37.0482 6.575 37.0332 6.86C33.5082 6.86 32.4732 8.045 32.4732 9.305C32.4732 10.445 33.2532 11.21 34.6032 11.21C35.8782 11.21 36.7182 10.835 37.3182 9.92C37.3782 10.835 37.9032 11.21 38.5782 11.21C39.1482 11.21 39.4182 10.955 39.8382 10.415L39.3282 9.755ZM43.8495 11.21C46.1445 11.21 47.2845 9.5 47.2845 7.565C47.2845 5.63 46.4445 3.92 44.1495 3.92C42.8745 3.92 41.9145 4.49 41.4045 5.63C41.4045 3.515 42.3195 2.855 44.0595 2.54C46.2645 2.135 46.8495 1.715 46.8495 0.169999H45.7995C45.7995 0.724999 45.0645 0.8 43.6845 1.1C40.4445 1.805 40.4145 3.77 40.4145 7.565C40.4145 9.5 41.5545 11.21 43.8495 11.21ZM43.8495 10.01C42.6345 10.01 41.8995 9.23 41.8995 7.565C41.8995 5.9 42.7845 5.12 43.9995 5.12C45.2145 5.12 45.7995 5.9 45.7995 7.565C45.7995 9.23 45.0645 10.01 43.8495 10.01ZM50.7982 10.205C50.1232 10.205 49.7482 9.755 49.7482 9.185C49.7482 8.51 50.2582 7.775 52.8682 7.775C52.8382 8.54 52.8082 8.81 52.5682 9.185C52.1182 9.89 51.4132 10.205 50.7982 10.205ZM55.1632 9.755C54.9832 9.95 54.8182 10.085 54.6532 10.085C54.4132 10.085 54.2932 9.935 54.2932 9.665C54.2932 8.6 54.3682 7.04 54.3682 6.125C54.3682 4.655 53.3932 3.92 51.5032 3.92C50.3032 3.92 48.5932 4.355 48.5932 6.035L49.8082 6.245C49.8832 5.315 50.4832 4.97 51.3682 4.97C52.4032 4.97 52.8832 5.195 52.8982 6.11C52.8982 6.275 52.8832 6.575 52.8682 6.86C49.3432 6.86 48.3082 8.045 48.3082 9.305C48.3082 10.445 49.0882 11.21 50.4382 11.21C51.7132 11.21 52.5532 10.835 53.1532 9.92C53.2132 10.835 53.7382 11.21 54.4132 11.21C54.9832 11.21 55.2532 10.955 55.6732 10.415L55.1632 9.755ZM59.4929 11V5.33H61.8029V4.13H55.7279V5.33H58.0379V11H59.4929ZM69.5965 11H71.0515V4.13H69.5965V11ZM66.0415 7.715C66.9265 7.715 67.3315 8.135 67.3315 8.765C67.3315 9.38 66.9265 9.8 66.0415 9.8H64.3765V7.715H66.0415ZM64.3765 4.13H62.9215V11H66.2965C67.7815 11 68.8015 10.19 68.8015 8.765C68.8015 7.325 67.7815 6.515 66.2965 6.515H64.3765V4.13ZM74.3081 5.255H75.9431C76.6781 5.255 76.9031 5.69 76.9031 6.11C76.9031 6.455 76.6781 6.965 75.9431 6.965H74.3081V5.255ZM74.3081 9.875V8.015H75.9731C76.8281 8.015 77.2631 8.315 77.2631 8.945C77.2631 9.59 76.9181 9.875 76.0331 9.875H74.3081ZM72.8531 4.13V11H76.2281C77.7131 11 78.7331 10.43 78.7331 9.02C78.7331 8.195 78.1481 7.595 77.2031 7.505C78.0431 7.22 78.3431 6.605 78.3431 5.75C78.3431 4.76 77.5481 4.13 76.0331 4.13H72.8531ZM82.2777 10.205C81.6027 10.205 81.2277 9.755 81.2277 9.185C81.2277 8.51 81.7377 7.775 84.3477 7.775C84.3177 8.54 84.2877 8.81 84.0477 9.185C83.5977 9.89 82.8927 10.205 82.2777 10.205ZM86.6427 9.755C86.4627 9.95 86.2977 10.085 86.1327 10.085C85.8927 10.085 85.7727 9.935 85.7727 9.665C85.7727 8.6 85.8477 7.04 85.8477 6.125C85.8477 4.655 84.8727 3.92 82.9827 3.92C81.7827 3.92 80.0727 4.355 80.0727 6.035L81.2877 6.245C81.3627 5.315 81.9627 4.97 82.8477 4.97C83.8827 4.97 84.3627 5.195 84.3777 6.11C84.3777 6.275 84.3627 6.575 84.3477 6.86C80.8227 6.86 79.7877 8.045 79.7877 9.305C79.7877 10.445 80.5677 11.21 81.9177 11.21C83.1927 11.21 84.0327 10.835 84.6327 9.92C84.6927 10.835 85.2177 11.21 85.8927 11.21C86.4627 11.21 86.7327 10.955 87.1527 10.415L86.6427 9.755ZM94.0439 7.94C94.0439 5.33 93.0089 3.92 90.9689 3.92C88.7639 3.92 87.7289 5.405 87.7289 7.565C87.7289 9.8 88.8689 11.21 91.0739 11.21C92.6939 11.21 93.7739 10.31 93.9239 8.87L92.6339 8.72C92.4989 9.665 92.1239 10.01 91.0739 10.01C89.8289 10.01 89.2139 9.275 89.2139 7.94H94.0439ZM90.9539 4.97C91.8089 4.97 92.4689 5.465 92.5289 6.815H89.2139C89.2739 5.465 89.8889 4.97 90.9539 4.97ZM95.5143 4.13V11H96.9693V5.6H97.0293L99.0693 11H100.089L102.129 5.6H102.189V11H103.644V4.13H101.379L99.5793 8.795L97.7793 4.13H95.5143ZM115.082 13.82V10.055C115.412 10.79 116.042 11.225 116.912 11.225C118.637 11.225 119.507 9.545 119.507 7.58C119.507 5.63 118.637 3.935 116.912 3.935C116.042 3.935 115.412 4.385 115.082 5.15V0.919999H113.627V5.15C113.282 4.385 112.652 3.935 111.782 3.935C110.057 3.935 109.202 5.63 109.202 7.58C109.202 9.545 110.057 11.225 111.782 11.225C112.652 11.225 113.282 10.79 113.627 10.055V13.82H115.082ZM115.037 7.61C115.052 5.93 115.802 5.15 116.567 5.15C117.572 5.15 118.142 5.9 118.142 7.61C118.142 9.305 117.572 10.07 116.567 10.07C115.802 10.07 115.052 9.35 115.037 7.61ZM113.657 7.61C113.642 9.35 112.892 10.07 112.127 10.07C111.137 10.07 110.567 9.305 110.567 7.61C110.567 5.9 111.137 5.15 112.127 5.15C112.892 5.15 113.642 5.93 113.657 7.61ZM127.484 11V4.13H125.729L122.384 9.29V4.13H120.929V11H122.684L126.029 5.84V11H127.484ZM130.734 13.82V9.95C131.109 10.76 131.934 11.21 133.059 11.21C135.024 11.21 136.059 9.53 136.059 7.565C136.059 5.615 135.024 3.92 132.909 3.92C131.949 3.92 131.214 4.43 130.734 5.03V4.13H129.279V13.82H130.734ZM130.734 7.505C130.734 5.945 131.544 5.12 132.654 5.12C133.704 5.12 134.574 5.675 134.574 7.505C134.574 9.35 133.659 10.01 132.609 10.01C131.514 10.01 130.734 9.125 130.734 7.505ZM137.555 4.13V11H139.01V5.6H139.07L141.11 11H142.13L144.17 5.6H144.23V11H145.685V4.13H143.42L141.62 8.795L139.82 4.13H137.555ZM153.502 7.94C153.502 5.33 152.467 3.92 150.427 3.92C148.222 3.92 147.187 5.405 147.187 7.565C147.187 9.8 148.327 11.21 150.532 11.21C152.152 11.21 153.232 10.31 153.382 8.87L152.092 8.72C151.957 9.665 151.582 10.01 150.532 10.01C149.287 10.01 148.672 9.275 148.672 7.94H153.502ZM150.412 4.97C151.267 4.97 151.927 5.465 151.987 6.815H148.672C148.732 5.465 149.347 4.97 150.412 4.97ZM161.377 4.13H159.922V6.89H156.427V4.13H154.972V11H156.427V8.09H159.922V11H161.377V4.13ZM169.58 4.13H168.125V6.89H164.63V4.13H163.175V11H164.63V8.09H168.125V11H169.58V4.13ZM178.054 11H179.509V4.13H178.054V11ZM174.499 7.715C175.384 7.715 175.789 8.135 175.789 8.765C175.789 9.38 175.384 9.8 174.499 9.8H172.834V7.715H174.499ZM172.834 4.13H171.379V11H174.754C176.239 11 177.259 10.19 177.259 8.765C177.259 7.325 176.239 6.515 174.754 6.515H172.834V4.13ZM187.325 7.94C187.325 5.33 186.29 3.92 184.25 3.92C182.045 3.92 181.01 5.405 181.01 7.565C181.01 9.8 182.15 11.21 184.355 11.21C185.975 11.21 187.055 10.31 187.205 8.87L185.915 8.72C185.78 9.665 185.405 10.01 184.355 10.01C183.11 10.01 182.495 9.275 182.495 7.94H187.325ZM184.235 4.97C185.09 4.97 185.75 5.465 185.81 6.815H182.495C182.555 5.465 183.17 4.97 184.235 4.97ZM2.055 26.565C2.055 24.99 2.595 24.045 3.84 24.045C4.59 24.045 5.22 24.465 5.355 25.41L6.795 25.26C6.645 23.82 5.46 22.92 3.84 22.92C1.635 22.92 0.6 24.33 0.6 26.565C0.6 28.8 1.635 30.21 3.84 30.21C5.46 30.21 6.645 29.31 6.795 27.87L5.355 27.72C5.22 28.665 4.59 29.085 3.84 29.085C2.595 29.085 2.055 28.14 2.055 26.565ZM11.3142 30V24.33H13.6242V23.13H7.54922V24.33H9.85922V30H11.3142ZM21.2978 30V23.13H19.5428L16.1978 28.29V23.13H14.7428V30H16.4978L19.8428 24.84V30H21.2978ZM29.2724 23.13H24.0524V24.33C24.0524 28.77 23.6624 29.025 23.1524 29.025C22.9574 29.025 22.8074 28.995 22.5974 28.845L22.3424 29.91C22.5974 30.105 22.9124 30.195 23.2424 30.195C24.9674 30.195 25.4024 28.965 25.4024 24.33H27.8174V30H29.2724V23.13ZM37.6308 30V23.13H35.8758L32.5308 28.29V23.13H31.0758V30H32.8308L36.1758 24.84V30H37.6308ZM44.7113 26.565C44.7113 24.99 45.2513 24.045 46.4963 24.045C47.2463 24.045 47.8763 24.465 48.0113 25.41L49.4513 25.26C49.3013 23.82 48.1163 22.92 46.4963 22.92C44.2913 22.92 43.2563 24.33 43.2563 26.565C43.2563 28.8 44.2913 30.21 46.4963 30.21C48.1163 30.21 49.3013 29.31 49.4513 27.87L48.0113 27.72C47.8763 28.665 47.2463 29.085 46.4963 29.085C45.2513 29.085 44.7113 28.14 44.7113 26.565ZM62.3913 28.605H57.4113C60.9213 25.62 62.0313 24.225 62.0313 22.095C62.0313 20.295 60.8763 18.96 58.6413 18.96C56.4813 18.96 55.2363 20.28 55.0713 22.29L56.6463 22.545C56.7963 21.315 57.1863 20.385 58.6413 20.385C59.8713 20.385 60.4413 21.135 60.4413 22.095C60.4413 23.775 59.6163 24.78 58.5663 25.77L55.1613 28.98V30H62.3913V28.605ZM70.2248 24.585C70.2248 27.09 69.5798 28.815 67.9598 28.815C66.3248 28.815 65.6948 27.09 65.6948 24.585C65.6948 22.095 66.3248 20.355 67.9598 20.355C69.5798 20.355 70.2248 22.095 70.2248 24.585ZM71.7998 24.585C71.7998 21.48 70.6748 18.96 67.9598 18.96C65.2448 18.96 64.1048 21.48 64.1048 24.585C64.1048 27.69 65.2448 30.21 67.9598 30.21C70.6748 30.21 71.7998 27.69 71.7998 24.585ZM79.4534 24.585C79.4534 27.09 78.8084 28.815 77.1884 28.815C75.5534 28.815 74.9234 27.09 74.9234 24.585C74.9234 22.095 75.5534 20.355 77.1884 20.355C78.8084 20.355 79.4534 22.095 79.4534 24.585ZM81.0284 24.585C81.0284 21.48 79.9034 18.96 77.1884 18.96C74.4734 18.96 73.3334 21.48 73.3334 24.585C73.3334 27.69 74.4734 30.21 77.1884 30.21C79.9034 30.21 81.0284 27.69 81.0284 24.585ZM82.5619 22.71C82.5619 24.405 83.4919 26.19 85.8319 26.19C87.0019 26.19 87.8719 25.995 88.6669 25.515C88.6669 27.045 88.1119 28.815 86.2669 28.815C85.2169 28.815 84.5119 28.32 84.3619 27.075L82.7719 27.225C82.9219 28.71 83.6269 30.21 86.2669 30.21C89.3269 30.21 90.2569 27.435 90.2569 24.135C90.2569 20.895 89.4469 18.96 86.2519 18.96C84.1369 18.96 82.5619 20.595 82.5619 22.71ZM86.2519 20.37C87.7069 20.37 88.6969 21.105 88.6969 23.34C88.6969 23.55 88.6969 23.79 88.6669 24.06C88.1269 24.54 87.1969 24.825 86.2369 24.825C84.7219 24.825 84.1519 23.94 84.1519 22.71C84.1519 21.3 84.8569 20.37 86.2519 20.37ZM100.781 24.33V23.13H96.0563V30H97.5113V24.33H100.781ZM104.889 30.21C107.184 30.21 108.324 28.5 108.324 26.565C108.324 24.63 107.184 22.92 104.889 22.92C102.594 22.92 101.454 24.63 101.454 26.565C101.454 28.5 102.594 30.21 104.889 30.21ZM104.889 29.01C103.674 29.01 102.939 28.23 102.939 26.565C102.939 24.9 103.674 24.12 104.889 24.12C106.104 24.12 106.839 24.9 106.839 26.565C106.839 28.23 106.104 29.01 104.889 29.01ZM115.312 28.8V23.13H110.587V24.33C110.587 26.715 110.257 27.795 109.552 28.8H108.697V32.19H110.047V30H115.012V32.19H116.362V28.8H115.312ZM113.842 24.33V28.8H111.067C111.637 27.795 111.907 26.715 111.907 24.33H113.842ZM119.602 29.205C118.927 29.205 118.552 28.755 118.552 28.185C118.552 27.51 119.062 26.775 121.672 26.775C121.642 27.54 121.612 27.81 121.372 28.185C120.922 28.89 120.217 29.205 119.602 29.205ZM123.967 28.755C123.787 28.95 123.622 29.085 123.457 29.085C123.217 29.085 123.097 28.935 123.097 28.665C123.097 27.6 123.172 26.04 123.172 25.125C123.172 23.655 122.197 22.92 120.307 22.92C119.107 22.92 117.397 23.355 117.397 25.035L118.612 25.245C118.687 24.315 119.287 23.97 120.172 23.97C121.207 23.97 121.687 24.195 121.702 25.11C121.702 25.275 121.687 25.575 121.672 25.86C118.147 25.86 117.112 27.045 117.112 28.305C117.112 29.445 117.892 30.21 119.242 30.21C120.517 30.21 121.357 29.835 121.957 28.92C122.017 29.835 122.542 30.21 123.217 30.21C123.787 30.21 124.057 29.955 124.477 29.415L123.967 28.755Z" fill="white"/>
</svg>
